<mxfile host="app.diagrams.net" modified="2024-01-30T18:01:19.899Z" agent="Mozilla/5.0 (Windows NT 10.0; Win64; x64) AppleWebKit/537.36 (KHTML, like Gecko) Chrome/120.0.0.0 Safari/537.36" etag="pzuiuw6rLq-P9UvlQ-bH" version="23.0.2" type="device">
  <diagram name="Page-1" id="t0e_fr_wTgD__a7qvoS6">
    <mxGraphModel dx="1050" dy="522" grid="1" gridSize="10" guides="1" tooltips="1" connect="1" arrows="1" fold="1" page="1" pageScale="1" pageWidth="827" pageHeight="1169" math="0" shadow="0">
      <root>
        <mxCell id="0" />
        <mxCell id="1" parent="0" />
        <mxCell id="lfM597qQQUqQYlY5xG8M-55" value="" style="edgeStyle=orthogonalEdgeStyle;rounded=0;orthogonalLoop=1;jettySize=auto;html=1;" edge="1" parent="1" source="lfM597qQQUqQYlY5xG8M-1" target="lfM597qQQUqQYlY5xG8M-54">
          <mxGeometry relative="1" as="geometry" />
        </mxCell>
        <mxCell id="lfM597qQQUqQYlY5xG8M-1" value="Actor" style="shape=umlActor;verticalLabelPosition=bottom;verticalAlign=top;html=1;outlineConnect=0;" vertex="1" parent="1">
          <mxGeometry x="60" y="210" width="40" height="130" as="geometry" />
        </mxCell>
        <mxCell id="lfM597qQQUqQYlY5xG8M-19" value="" style="endArrow=none;html=1;rounded=0;" edge="1" parent="1">
          <mxGeometry width="50" height="50" relative="1" as="geometry">
            <mxPoint x="210" y="255" as="sourcePoint" />
            <mxPoint x="350" y="254.5" as="targetPoint" />
            <Array as="points" />
          </mxGeometry>
        </mxCell>
        <mxCell id="lfM597qQQUqQYlY5xG8M-21" value="" style="endArrow=none;html=1;rounded=0;" edge="1" parent="1">
          <mxGeometry width="50" height="50" relative="1" as="geometry">
            <mxPoint x="210" y="570" as="sourcePoint" />
            <mxPoint x="210" y="20" as="targetPoint" />
          </mxGeometry>
        </mxCell>
        <mxCell id="lfM597qQQUqQYlY5xG8M-22" value="" style="endArrow=none;html=1;rounded=0;entryX=0;entryY=0.5;entryDx=0;entryDy=0;" edge="1" parent="1" target="lfM597qQQUqQYlY5xG8M-30">
          <mxGeometry width="50" height="50" relative="1" as="geometry">
            <mxPoint x="210" y="109.5" as="sourcePoint" />
            <mxPoint x="320" y="109.5" as="targetPoint" />
          </mxGeometry>
        </mxCell>
        <mxCell id="lfM597qQQUqQYlY5xG8M-24" value="" style="endArrow=none;html=1;rounded=0;" edge="1" parent="1">
          <mxGeometry width="50" height="50" relative="1" as="geometry">
            <mxPoint x="210" y="194.5" as="sourcePoint" />
            <mxPoint x="340" y="194.5" as="targetPoint" />
            <Array as="points" />
          </mxGeometry>
        </mxCell>
        <mxCell id="lfM597qQQUqQYlY5xG8M-25" value="" style="endArrow=none;html=1;rounded=0;entryX=0;entryY=0.5;entryDx=0;entryDy=0;" edge="1" parent="1" target="lfM597qQQUqQYlY5xG8M-33">
          <mxGeometry width="50" height="50" relative="1" as="geometry">
            <mxPoint x="210" y="329.5" as="sourcePoint" />
            <mxPoint x="320" y="329.5" as="targetPoint" />
          </mxGeometry>
        </mxCell>
        <mxCell id="lfM597qQQUqQYlY5xG8M-28" value="" style="endArrow=none;html=1;rounded=0;" edge="1" parent="1">
          <mxGeometry width="50" height="50" relative="1" as="geometry">
            <mxPoint x="210" y="29.5" as="sourcePoint" />
            <mxPoint x="330" y="29.5" as="targetPoint" />
          </mxGeometry>
        </mxCell>
        <mxCell id="lfM597qQQUqQYlY5xG8M-29" value="CREATE ACCOUNT" style="ellipse;whiteSpace=wrap;html=1;" vertex="1" parent="1">
          <mxGeometry x="330" width="120" height="60" as="geometry" />
        </mxCell>
        <mxCell id="lfM597qQQUqQYlY5xG8M-30" value="LOGIN" style="ellipse;whiteSpace=wrap;html=1;" vertex="1" parent="1">
          <mxGeometry x="330" y="80" width="120" height="60" as="geometry" />
        </mxCell>
        <mxCell id="lfM597qQQUqQYlY5xG8M-31" value="ADD BANK ACCOUNT" style="ellipse;whiteSpace=wrap;html=1;" vertex="1" parent="1">
          <mxGeometry x="330" y="160" width="120" height="60" as="geometry" />
        </mxCell>
        <mxCell id="lfM597qQQUqQYlY5xG8M-32" value="ADD MONEY TO WALLET" style="ellipse;whiteSpace=wrap;html=1;" vertex="1" parent="1">
          <mxGeometry x="330" y="230" width="120" height="60" as="geometry" />
        </mxCell>
        <mxCell id="lfM597qQQUqQYlY5xG8M-33" value="PERFORM TRANSACTION" style="ellipse;whiteSpace=wrap;html=1;" vertex="1" parent="1">
          <mxGeometry x="330" y="300" width="120" height="60" as="geometry" />
        </mxCell>
        <mxCell id="lfM597qQQUqQYlY5xG8M-34" value="REQUEST TRANSACTION STATEMENT" style="ellipse;whiteSpace=wrap;html=1;" vertex="1" parent="1">
          <mxGeometry x="330" y="370" width="120" height="70" as="geometry" />
        </mxCell>
        <mxCell id="lfM597qQQUqQYlY5xG8M-36" value="" style="endArrow=none;html=1;rounded=0;entryX=-0.018;entryY=0.4;entryDx=0;entryDy=0;entryPerimeter=0;" edge="1" parent="1" target="lfM597qQQUqQYlY5xG8M-34">
          <mxGeometry width="50" height="50" relative="1" as="geometry">
            <mxPoint x="210" y="400" as="sourcePoint" />
            <mxPoint x="260" y="350" as="targetPoint" />
          </mxGeometry>
        </mxCell>
        <mxCell id="lfM597qQQUqQYlY5xG8M-37" value="REQUEST REFUND" style="ellipse;whiteSpace=wrap;html=1;" vertex="1" parent="1">
          <mxGeometry x="330" y="450" width="120" height="70" as="geometry" />
        </mxCell>
        <mxCell id="lfM597qQQUqQYlY5xG8M-38" value="" style="endArrow=none;html=1;rounded=0;" edge="1" parent="1">
          <mxGeometry width="50" height="50" relative="1" as="geometry">
            <mxPoint x="210" y="480" as="sourcePoint" />
            <mxPoint x="330" y="480" as="targetPoint" />
          </mxGeometry>
        </mxCell>
        <mxCell id="lfM597qQQUqQYlY5xG8M-39" value="" style="endArrow=none;html=1;rounded=0;entryX=-0.007;entryY=0.606;entryDx=0;entryDy=0;entryPerimeter=0;" edge="1" parent="1" target="lfM597qQQUqQYlY5xG8M-40">
          <mxGeometry width="50" height="50" relative="1" as="geometry">
            <mxPoint x="210" y="570" as="sourcePoint" />
            <mxPoint x="334" y="575" as="targetPoint" />
          </mxGeometry>
        </mxCell>
        <mxCell id="lfM597qQQUqQYlY5xG8M-40" value="GENERATE MONTHLY STATEMENT" style="ellipse;whiteSpace=wrap;html=1;" vertex="1" parent="1">
          <mxGeometry x="330" y="530" width="120" height="70" as="geometry" />
        </mxCell>
        <mxCell id="lfM597qQQUqQYlY5xG8M-53" value="" style="endArrow=classic;html=1;rounded=0;" edge="1" parent="1">
          <mxGeometry width="50" height="50" relative="1" as="geometry">
            <mxPoint x="110" y="270" as="sourcePoint" />
            <mxPoint x="200" y="270" as="targetPoint" />
          </mxGeometry>
        </mxCell>
        <mxCell id="lfM597qQQUqQYlY5xG8M-54" value="USER&lt;br&gt;" style="whiteSpace=wrap;html=1;verticalAlign=top;" vertex="1" parent="1">
          <mxGeometry x="25" y="350" width="110" height="30" as="geometry" />
        </mxCell>
      </root>
    </mxGraphModel>
  </diagram>
</mxfile>
